<svg width="512" height="512" viewBox="0 0 512 512" fill="none" xmlns="http://www.w3.org/2000/svg">
  <defs>
    <linearGradient id="badgeGradient" x1="104" y1="96" x2="408" y2="416" gradientUnits="userSpaceOnUse">
      <stop stop-color="#081229"/>
      <stop offset="1" stop-color="#14285A"/>
    </linearGradient>
    <linearGradient id="innerGlow" x1="256" y1="132" x2="256" y2="380" gradientUnits="userSpaceOnUse">
      <stop stop-color="#335EF7" stop-opacity="0.65"/>
      <stop offset="0.55" stop-color="#47A2FF" stop-opacity="0.35"/>
      <stop offset="1" stop-color="#4ED2FF" stop-opacity="0.2"/>
    </linearGradient>
    <linearGradient id="pillGradient" x1="208" y1="208" x2="320" y2="320" gradientUnits="userSpaceOnUse">
      <stop stop-color="#FFFFFF"/>
      <stop offset="1" stop-color="#E3ECFF"/>
    </linearGradient>
    <radialGradient id="pulseGradient" cx="0" cy="0" r="1" gradientUnits="userSpaceOnUse" gradientTransform="translate(256 256) rotate(90) scale(160)">
      <stop stop-color="#5CF0FF" stop-opacity="0.24"/>
      <stop offset="1" stop-color="#5CF0FF" stop-opacity="0"/>
    </radialGradient>
    <filter id="softShadow" x="92" y="92" width="328" height="340" filterUnits="userSpaceOnUse" color-interpolation-filters="sRGB">
      <feFlood flood-opacity="0" result="BackgroundImageFix"/>
      <feOffset dy="12"/>
      <feGaussianBlur stdDeviation="20"/>
      <feColorMatrix type="matrix" values="0 0 0 0 0.062 0 0 0 0 0.156 0 0 0 0 0.325 0 0 0 0.22 0"/>
      <feBlend mode="normal" in2="BackgroundImageFix" result="effect1_dropShadow"/>
      <feBlend mode="normal" in="SourceGraphic" in2="effect1_dropShadow" result="shape"/>
    </filter>
    <clipPath id="badgeClip">
      <rect x="112" y="112" width="288" height="288" rx="72"/>
    </clipPath>
  </defs>
  <rect x="96" y="96" width="320" height="320" rx="88" fill="#040610"/>
  <g filter="url(#softShadow)">
    <rect x="112" y="112" width="288" height="288" rx="72" fill="url(#badgeGradient)"/>
    <rect x="112" y="112" width="288" height="288" rx="72" fill="url(#innerGlow)"/>
  </g>
  <g clip-path="url(#badgeClip)">
    <circle cx="256" cy="256" r="160" fill="url(#pulseGradient)"/>
    <path d="M188 228C188 205.909 205.909 188 228 188H320C342.091 188 360 205.909 360 228V284C360 306.091 342.091 324 320 324H228C205.909 324 188 306.091 188 284V228Z" fill="url(#pillGradient)"/>
    <path d="M228 220C228 205.64 239.64 194 254 194H294C308.36 194 320 205.64 320 220V292C320 306.36 308.36 318 294 318H254C239.64 318 228 306.36 228 292V220Z" fill="#1A3A7A"/>
    <path d="M214 256H334" stroke="#19336A" stroke-width="20" stroke-linecap="round"/>
    <path d="M274 208V304" stroke="#FFFFFF" stroke-width="18" stroke-linecap="round"/>
    <path d="M238 208V304" stroke="#6CC7FF" stroke-width="10" stroke-linecap="round" stroke-opacity="0.6"/>
    <circle cx="272" cy="256" r="64" fill="url(#pulseGradient)" opacity="0.35"/>
  </g>
  <path d="M188 380H324" stroke="#5CF0FF" stroke-width="8" stroke-linecap="round" stroke-opacity="0.3"/>
</svg>
